<svg width="160" height="160" viewBox="0 0 160 160" fill="none" xmlns="http://www.w3.org/2000/svg">
<g clip-path="url(#clip0)">
<path d="M80 160C95.8225 160 111.29 155.308 124.446 146.518C137.602 137.727 147.855 125.233 153.91 110.615C159.965 95.9966 161.55 79.9113 158.463 64.3928C155.376 48.8743 147.757 34.6197 136.569 23.4315C125.38 12.2433 111.126 4.62403 95.6072 1.53721C80.0887 -1.5496 64.0034 0.0346629 49.3853 6.08967C34.7672 12.1447 22.2729 22.3985 13.4824 35.5544C4.69192 48.7103 0 64.1775 0 80C0.0229405 101.21 8.45885 121.545 23.4568 136.543C38.4547 151.541 58.7897 159.977 80 160ZM112.08 83.3334C112.02 84.5271 111.62 85.6787 110.926 86.6521C110.233 87.6256 109.275 88.3802 108.167 88.8267L67.6 109.107C66.5054 109.674 65.293 109.978 64.06 109.993C62.912 110.002 61.7847 109.688 60.8067 109.087C59.8141 108.426 59.0102 107.519 58.4738 106.455C57.9374 105.39 57.6868 104.204 57.7467 103.013V63.64C57.6448 62.4442 57.8763 61.2436 58.4156 60.1714C58.9548 59.0992 59.7806 58.1975 60.8013 57.5662C61.8221 56.935 62.9978 56.599 64.1979 56.5956C65.398 56.5921 66.5757 56.9214 67.6 57.5467L108.167 77.8334C109.276 78.2804 110.235 79.036 110.928 80.0107C111.622 80.9855 112.021 82.1385 112.08 83.3334Z" fill="white"/>
</g>
<defs>
<clipPath id="clip0">
<rect width="160" height="160" fill="white"/>
</clipPath>
</defs>
</svg>
