<svg width="25" height="24" viewBox="0 0 25 24" fill="none" xmlns="http://www.w3.org/2000/svg">
<path fill-rule="evenodd" clip-rule="evenodd" d="M12.5 4C11.3037 4.00058 10.1227 4.26946 9.04408 4.78685C7.96543 5.30423 7.01655 6.05693 6.26729 6.98956C5.51803 7.92218 4.98747 9.01096 4.71468 10.1758C4.44188 11.3406 4.43379 12.5517 4.69101 13.72C4.94822 14.8884 5.46419 15.9842 6.20093 16.9267C6.93766 17.8692 7.87641 18.6346 8.94805 19.1663C10.0197 19.698 11.197 19.9827 12.3932 19.9992C13.5894 20.0158 14.774 19.7639 15.86 19.262C16.1007 19.1503 16.3759 19.1389 16.625 19.2301C16.8741 19.3213 17.0768 19.5078 17.1885 19.7485C17.3002 19.9892 17.3116 20.2644 17.2204 20.5135C17.1292 20.7626 16.9427 20.9653 16.702 21.077C15.3852 21.6869 13.9512 22.0019 12.5 22C6.977 22 2.5 17.523 2.5 12C2.5 6.477 6.977 2 12.5 2C18.023 2 22.5 6.477 22.5 12V12.019C22.458 14.209 21.76 15.684 20.733 16.599C19.729 17.493 18.54 17.737 17.71 17.737C16.518 17.737 15.471 17.117 14.872 16.183C12.796 18.018 9.802 18.422 7.954 16.368C6.028 14.228 6.565 10.655 8.62 8.372C10.608 6.163 14.223 5.31 16.298 7.866C16.388 7.62415 16.568 7.42646 16.8004 7.31427C17.0328 7.20208 17.2996 7.18407 17.545 7.264C17.7903 7.34394 17.9953 7.51564 18.117 7.74319C18.2387 7.97075 18.2677 8.23654 18.198 8.485C17.606 10.561 16.908 12.618 16.385 14.712C16.4613 15.0054 16.6328 15.2651 16.8726 15.4506C17.1124 15.6361 17.4069 15.7368 17.71 15.737C18.19 15.737 18.858 15.591 19.403 15.106C19.923 14.643 20.465 13.752 20.5 11.991C20.4976 9.87083 19.6537 7.83831 18.1537 6.33996C16.6536 4.84162 14.6202 4 12.5 4V4ZM14.853 12.914C14.923 12.674 15.106 12.033 15.32 11.286C15.553 10.466 15.25 9.68 14.612 8.97C13.692 7.949 11.72 7.917 10.107 9.71C8.484 11.512 8.425 13.901 9.441 15.03C10.36 16.051 12.332 16.083 13.946 14.29C14.319 13.876 14.67 13.446 14.853 12.914V12.914Z" fill="white"/>
</svg>
