<svg width="24" height="24" viewBox="0 0 24 24" fill="none" xmlns="http://www.w3.org/2000/svg">
<path d="M16.2417 21.9984C15.9765 21.9984 15.7221 21.8931 15.5346 21.7055C15.3471 21.518 15.2417 21.2637 15.2417 20.9984V18.3984C15.2728 18.0994 15.2408 17.7971 15.1478 17.5112C15.0547 17.2252 14.9028 16.962 14.7017 16.7384C14.5772 16.6034 14.4923 16.4367 14.4563 16.2566C14.4203 16.0765 14.4346 15.89 14.4976 15.7175C14.5606 15.545 14.6699 15.3931 14.8135 15.2786C14.9571 15.1642 15.1295 15.0914 15.3117 15.0684C17.7517 14.7784 20.0017 13.9984 20.0017 9.76844C20.0025 8.97852 19.7693 8.20605 19.3317 7.54844C18.9279 6.94307 18.7804 6.2023 18.9217 5.48844C19.0118 5.02276 19.0118 4.54412 18.9217 4.07844C18.1729 4.33161 17.4679 4.69931 16.8317 5.16844C16.7114 5.25385 16.5737 5.3116 16.4285 5.33753C16.2833 5.36346 16.1341 5.35694 15.9917 5.31844C14.187 4.8085 12.2764 4.8085 10.4717 5.31844C10.3293 5.35694 10.1801 5.36346 10.0349 5.33753C9.88967 5.3116 9.75198 5.25385 9.6317 5.16844C8.99164 4.69388 8.27913 4.3258 7.5217 4.07844C7.4266 4.54363 7.4266 5.02325 7.5217 5.48844C7.65278 6.21129 7.49866 6.95682 7.0917 7.56844C6.65596 8.23066 6.4231 9.00572 6.4217 9.79844C6.4217 13.6884 8.3017 14.7284 11.1217 15.0884C11.3062 15.1113 11.4807 15.1852 11.6256 15.3018C11.7704 15.4184 11.8799 15.5731 11.9417 15.7484C11.9998 15.9186 12.011 16.1013 11.9741 16.2773C11.9371 16.4533 11.8534 16.616 11.7317 16.7484C11.5372 16.9563 11.3879 17.2023 11.2932 17.4708C11.1986 17.7393 11.1606 18.0245 11.1817 18.3084V20.9984C11.1817 21.2637 11.0763 21.518 10.8888 21.7055C10.7013 21.8931 10.4469 21.9984 10.1817 21.9984C9.91648 21.9984 9.66213 21.8931 9.47459 21.7055C9.28706 21.518 9.1817 21.2637 9.1817 20.9984V20.4284C8.19906 20.5414 7.20373 20.4098 6.28428 20.0451C5.36483 19.6805 4.54979 19.0942 3.9117 18.3384C3.5837 17.9749 3.19018 17.6764 2.7517 17.4584C2.62432 17.4256 2.50465 17.368 2.39953 17.2889C2.2944 17.2099 2.20589 17.1108 2.13903 16.9976C2.07217 16.8843 2.02828 16.7589 2.00986 16.6287C1.99145 16.4984 1.99887 16.3658 2.0317 16.2384C2.06453 16.1111 2.12213 15.9914 2.20121 15.8863C2.28028 15.7811 2.37929 15.6926 2.49258 15.6258C2.60587 15.5589 2.73122 15.515 2.86147 15.4966C2.99172 15.4782 3.12432 15.4856 3.2517 15.5184C4.02095 15.7987 4.7083 16.2661 5.2517 16.8784C6.2517 17.8784 7.2517 18.7584 9.1517 18.3984C9.11829 17.8615 9.19661 17.3235 9.3817 16.8184C7.3217 16.2984 4.3817 14.8184 4.3817 9.81844C4.37906 8.63407 4.72701 7.47541 5.3817 6.48844C5.5033 6.30624 5.54987 6.08414 5.5117 5.86844C5.30963 4.78901 5.42424 3.67417 5.8417 2.65844C5.89842 2.523 5.98427 2.40172 6.09316 2.30321C6.20204 2.20469 6.33128 2.13137 6.4717 2.08844C6.8117 1.98844 8.0317 1.78844 10.3417 3.28844C12.2117 2.83844 14.1617 2.83844 16.0317 3.28844C18.3417 1.78844 19.5617 1.97844 19.8917 2.08844C20.0321 2.13137 20.1614 2.20469 20.2702 2.30321C20.3791 2.40172 20.465 2.523 20.5217 2.65844C20.94 3.67747 21.0546 4.79574 20.8517 5.87844C20.8312 5.97599 20.8304 6.07664 20.8493 6.17451C20.8682 6.27238 20.9064 6.3655 20.9617 6.44844C21.6183 7.43825 21.9663 8.60067 21.9617 9.78844C21.9617 14.8584 19.0417 16.3284 16.9617 16.7884C17.1449 17.325 17.2197 17.8927 17.1817 18.4584V20.9984C17.1822 21.2536 17.0851 21.4992 16.9103 21.6852C16.7356 21.8711 16.4964 21.9831 16.2417 21.9984Z" fill="white"/>
</svg>
