<svg width="25" height="24" viewBox="0 0 25 24" fill="none" xmlns="http://www.w3.org/2000/svg">
<path fill-rule="evenodd" clip-rule="evenodd" d="M2.5 6C2.5 4.93913 2.92143 3.92172 3.67157 3.17157C4.42172 2.42143 5.43913 2 6.5 2H18.5C19.5609 2 20.5783 2.42143 21.3284 3.17157C22.0786 3.92172 22.5 4.93913 22.5 6V18C22.5 19.0609 22.0786 20.0783 21.3284 20.8284C20.5783 21.5786 19.5609 22 18.5 22H6.5C5.43913 22 4.42172 21.5786 3.67157 20.8284C2.92143 20.0783 2.5 19.0609 2.5 18V6ZM6.5 4C5.96957 4 5.46086 4.21071 5.08579 4.58579C4.71071 4.96086 4.5 5.46957 4.5 6V18C4.5 18.5304 4.71071 19.0391 5.08579 19.4142C5.46086 19.7893 5.96957 20 6.5 20H18.5C19.0304 20 19.5391 19.7893 19.9142 19.4142C20.2893 19.0391 20.5 18.5304 20.5 18V6C20.5 5.46957 20.2893 4.96086 19.9142 4.58579C19.5391 4.21071 19.0304 4 18.5 4H6.5ZM12.5 9C11.7044 9 10.9413 9.31607 10.3787 9.87868C9.81607 10.4413 9.5 11.2044 9.5 12C9.5 12.7956 9.81607 13.5587 10.3787 14.1213C10.9413 14.6839 11.7044 15 12.5 15C13.2956 15 14.0587 14.6839 14.6213 14.1213C15.1839 13.5587 15.5 12.7956 15.5 12C15.5 11.2044 15.1839 10.4413 14.6213 9.87868C14.0587 9.31607 13.2956 9 12.5 9ZM7.5 12C7.5 10.6739 8.02678 9.40215 8.96447 8.46447C9.90215 7.52678 11.1739 7 12.5 7C13.8261 7 15.0979 7.52678 16.0355 8.46447C16.9732 9.40215 17.5 10.6739 17.5 12C17.5 13.3261 16.9732 14.5979 16.0355 15.5355C15.0979 16.4732 13.8261 17 12.5 17C11.1739 17 9.90215 16.4732 8.96447 15.5355C8.02678 14.5979 7.5 13.3261 7.5 12V12ZM18 8C18.3978 8 18.7794 7.84196 19.0607 7.56066C19.342 7.27936 19.5 6.89782 19.5 6.5C19.5 6.10218 19.342 5.72064 19.0607 5.43934C18.7794 5.15804 18.3978 5 18 5C17.6022 5 17.2206 5.15804 16.9393 5.43934C16.658 5.72064 16.5 6.10218 16.5 6.5C16.5 6.89782 16.658 7.27936 16.9393 7.56066C17.2206 7.84196 17.6022 8 18 8Z" fill="white"/>
</svg>
