<svg width="25" height="24" viewBox="0 0 25 24" fill="none" xmlns="http://www.w3.org/2000/svg">
<path fill-rule="evenodd" clip-rule="evenodd" d="M6.5 2C5.43913 2 4.42172 2.42143 3.67157 3.17157C2.92143 3.92172 2.5 4.93913 2.5 6V18C2.5 19.0609 2.92143 20.0783 3.67157 20.8284C4.42172 21.5786 5.43913 22 6.5 22H18.5C19.5609 22 20.5783 21.5786 21.3284 20.8284C22.0786 20.0783 22.5 19.0609 22.5 18V6C22.5 4.93913 22.0786 3.92172 21.3284 3.17157C20.5783 2.42143 19.5609 2 18.5 2H6.5ZM4.5 6C4.5 5.46957 4.71071 4.96086 5.08579 4.58579C5.46086 4.21071 5.96957 4 6.5 4H18.5C19.0304 4 19.5391 4.21071 19.9142 4.58579C20.2893 4.96086 20.5 5.46957 20.5 6V18C20.5 18.5304 20.2893 19.0391 19.9142 19.4142C19.5391 19.7893 19.0304 20 18.5 20H6.5C5.96957 20 5.46086 19.7893 5.08579 19.4142C4.71071 19.0391 4.5 18.5304 4.5 18V6ZM9.5 11C9.5 10.7348 9.39464 10.4804 9.20711 10.2929C9.01957 10.1054 8.76522 10 8.5 10C8.23478 10 7.98043 10.1054 7.79289 10.2929C7.60536 10.4804 7.5 10.7348 7.5 11V17C7.5 17.2652 7.60536 17.5196 7.79289 17.7071C7.98043 17.8946 8.23478 18 8.5 18C8.76522 18 9.01957 17.8946 9.20711 17.7071C9.39464 17.5196 9.5 17.2652 9.5 17V11ZM10 7.5C10 7.89782 9.84196 8.27936 9.56066 8.56066C9.27936 8.84196 8.89782 9 8.5 9C8.10218 9 7.72064 8.84196 7.43934 8.56066C7.15804 8.27936 7 7.89782 7 7.5C7 7.10218 7.15804 6.72064 7.43934 6.43934C7.72064 6.15804 8.10218 6 8.5 6C8.89782 6 9.27936 6.15804 9.56066 6.43934C9.84196 6.72064 10 7.10218 10 7.5V7.5ZM12.5 10C12.84 10 13.14 10.17 13.32 10.428C13.8354 10.1471 14.413 9.99995 15 10C17.16 10 18.5 11.926 18.5 13.571V17C18.5 17.2652 18.3946 17.5196 18.2071 17.7071C18.0196 17.8946 17.7652 18 17.5 18C17.2348 18 16.9804 17.8946 16.7929 17.7071C16.6054 17.5196 16.5 17.2652 16.5 17V13.57C16.5 12.802 15.84 11.999 15 11.999C14.476 11.999 13.897 12.284 13.5 12.962V17C13.5 17.2652 13.3946 17.5196 13.2071 17.7071C13.0196 17.8946 12.7652 18 12.5 18C12.2348 18 11.9804 17.8946 11.7929 17.7071C11.6054 17.5196 11.5 17.2652 11.5 17V11C11.5 10.7348 11.6054 10.4804 11.7929 10.2929C11.9804 10.1054 12.2348 10 12.5 10V10Z" fill="white"/>
</svg>
