<svg width="25" height="24" viewBox="0 0 25 24" fill="none" xmlns="http://www.w3.org/2000/svg">
<path fill-rule="evenodd" clip-rule="evenodd" d="M6.5 2C5.43913 2 4.42172 2.42143 3.67157 3.17157C2.92143 3.92172 2.5 4.93913 2.5 6V18C2.5 19.0609 2.92143 20.0783 3.67157 20.8284C4.42172 21.5786 5.43913 22 6.5 22H18.5C19.5609 22 20.5783 21.5786 21.3284 20.8284C22.0786 20.0783 22.5 19.0609 22.5 18V6C22.5 4.93913 22.0786 3.92172 21.3284 3.17157C20.5783 2.42143 19.5609 2 18.5 2H6.5ZM4.5 6C4.5 5.46957 4.71071 4.96086 5.08579 4.58579C5.46086 4.21071 5.96957 4 6.5 4H18.5C19.0304 4 19.5391 4.21071 19.9142 4.58579C20.2893 4.96086 20.5 5.46957 20.5 6V18C20.5 18.5304 20.2893 19.0391 19.9142 19.4142C19.5391 19.7893 19.0304 20 18.5 20H6.5C5.96957 20 5.46086 19.7893 5.08579 19.4142C4.71071 19.0391 4.5 18.5304 4.5 18V6ZM7.5 7C7.23478 7 6.98043 7.10536 6.79289 7.29289C6.60536 7.48043 6.5 7.73478 6.5 8C6.5 8.26522 6.60536 8.51957 6.79289 8.70711C6.98043 8.89464 7.23478 9 7.5 9V15C7.23478 15 6.98043 15.1054 6.79289 15.2929C6.60536 15.4804 6.5 15.7348 6.5 16C6.5 16.2652 6.60536 16.5196 6.79289 16.7071C6.98043 16.8946 7.23478 17 7.5 17H9.5C9.76522 17 10.0196 16.8946 10.2071 16.7071C10.3946 16.5196 10.5 16.2652 10.5 16C10.5 15.7348 10.3946 15.4804 10.2071 15.2929C10.0196 15.1054 9.76522 15 9.5 15V11.303L11.668 14.555C11.7593 14.692 11.883 14.8043 12.0282 14.8819C12.1733 14.9596 12.3354 15.0002 12.5 15.0002C12.6646 15.0002 12.8267 14.9596 12.9718 14.8819C13.117 14.8043 13.2407 14.692 13.332 14.555L15.5 11.303V15C15.2348 15 14.9804 15.1054 14.7929 15.2929C14.6054 15.4804 14.5 15.7348 14.5 16C14.5 16.2652 14.6054 16.5196 14.7929 16.7071C14.9804 16.8946 15.2348 17 15.5 17H17.5C17.7652 17 18.0196 16.8946 18.2071 16.7071C18.3946 16.5196 18.5 16.2652 18.5 16C18.5 15.7348 18.3946 15.4804 18.2071 15.2929C18.0196 15.1054 17.7652 15 17.5 15V9C17.7652 9 18.0196 8.89464 18.2071 8.70711C18.3946 8.51957 18.5 8.26522 18.5 8C18.5 7.73478 18.3946 7.48043 18.2071 7.29289C18.0196 7.10536 17.7652 7 17.5 7H16.5C16.3354 6.99998 16.1734 7.04058 16.0282 7.11821C15.8831 7.19583 15.7593 7.30808 15.668 7.445L12.5 12.197L9.332 7.445C9.24065 7.30808 9.11692 7.19583 8.97178 7.11821C8.82665 7.04058 8.66459 6.99998 8.5 7H7.5Z" fill="white"/>
</svg>
