<svg width="25" height="24" viewBox="0 0 25 24" fill="none" xmlns="http://www.w3.org/2000/svg">
<path fill-rule="evenodd" clip-rule="evenodd" d="M4 11.998C3.98781 10.8743 4.1986 9.75941 4.62017 8.71776C5.04175 7.6761 5.66573 6.7284 6.456 5.9295C7.24628 5.13061 8.18716 4.49638 9.22418 4.06354C10.2612 3.63069 11.3738 3.40782 12.4975 3.40782C13.6212 3.40782 14.7338 3.63069 15.7708 4.06354C16.8078 4.49638 17.7487 5.13061 18.539 5.9295C19.3293 6.7284 19.9533 7.6761 20.3748 8.71776C20.7964 9.75941 21.0072 10.8743 20.995 11.998C20.9707 14.2357 20.0648 16.3735 18.4738 17.9473C16.8829 19.5211 14.7353 20.4038 12.4975 20.4038C10.2597 20.4038 8.11214 19.5211 6.52119 17.9473C4.93023 16.3735 4.02428 14.2357 4 11.998ZM12.498 1.5C6.7 1.5 2 6.2 2 11.998C2 17.795 6.7 22.495 12.498 22.495C18.295 22.495 22.995 17.795 22.995 11.998C22.995 6.2 18.295 1.5 12.498 1.5V1.5ZM7.088 7.812C7.06353 7.68283 7.06476 7.55011 7.09163 7.42142C7.1185 7.29274 7.17049 7.17061 7.2446 7.06203C7.31872 6.95345 7.41352 6.86056 7.52358 6.78866C7.63364 6.71675 7.75679 6.66726 7.886 6.643C8.486 6.543 9.093 6.493 9.701 6.477C10.772 6.449 12.239 6.522 13.794 6.939C15.349 7.355 16.656 8.026 17.57 8.586C18.085 8.902 18.597 9.242 19.058 9.636C19.471 9.992 19.52 10.634 19.165 11.047C18.9922 11.2481 18.7466 11.3724 18.4822 11.3925C18.2177 11.4125 17.9562 11.3268 17.755 11.154C17.377 10.829 16.949 10.551 16.525 10.291C15.721 9.798 14.593 9.223 13.276 8.871C11.96 8.518 10.696 8.451 9.753 8.477C9.254 8.49 8.749 8.522 8.257 8.609C7.99643 8.65816 7.727 8.60181 7.50797 8.45235C7.28894 8.30289 7.13823 8.07256 7.089 7.812H7.088ZM8.071 12.341C7.82073 12.4218 7.54869 12.4008 7.3138 12.2825C7.07891 12.1642 6.90007 11.9582 6.81604 11.7089C6.732 11.4597 6.74953 11.1874 6.86482 10.9511C6.98011 10.7147 7.18388 10.5332 7.432 10.446C7.934 10.276 8.479 10.204 9.005 10.16C9.949 10.082 11.27 10.114 12.831 10.532C14.392 10.951 15.552 11.584 16.331 12.123C16.77 12.427 17.186 12.766 17.551 13.157C17.7255 13.3567 17.8135 13.6176 17.7957 13.8822C17.7779 14.1468 17.6557 14.3935 17.456 14.568C17.2554 14.7396 16.9957 14.826 16.7323 14.8088C16.4689 14.7916 16.2226 14.6722 16.046 14.476C15.7863 14.2112 15.5001 13.9736 15.192 13.767C14.576 13.341 13.623 12.815 12.313 12.464C11.003 12.114 9.916 12.092 9.169 12.154C8.79837 12.1851 8.43105 12.2477 8.071 12.341V12.341ZM6.971 14.18C6.74198 14.31 6.57346 14.525 6.50204 14.7785C6.43061 15.0319 6.46204 15.3033 6.58949 15.5337C6.71695 15.7642 6.93015 15.935 7.18281 16.0092C7.43547 16.0834 7.7072 16.0549 7.939 15.93C8.139 15.838 8.371 15.801 8.587 15.774C9.124 15.706 10.029 15.704 11.351 16.058C12.672 16.412 13.455 16.866 13.886 17.194C14.211 17.441 14.346 17.62 14.368 17.651C14.678 18.088 15.238 18.272 15.723 17.989C15.8365 17.9228 15.9358 17.835 16.0153 17.7304C16.0949 17.6258 16.153 17.5066 16.1864 17.3796C16.2199 17.2525 16.2279 17.1202 16.2102 16.99C16.1924 16.8598 16.1492 16.7345 16.083 16.621C15.8144 16.227 15.4803 15.882 15.095 15.601C14.44 15.103 13.418 14.541 11.868 14.126C10.319 13.711 9.153 13.686 8.337 13.79C7.86271 13.8409 7.40068 13.9728 6.971 14.18V14.18Z" fill="white"/>
</svg>
