<svg width="25" height="24" viewBox="0 0 25 24" fill="none" xmlns="http://www.w3.org/2000/svg">
<path fill-rule="evenodd" clip-rule="evenodd" d="M15.3499 5.6564C14.8931 5.65621 14.4419 5.75746 14.0289 5.95282C13.616 6.14819 13.2515 6.4328 12.9619 6.78612C12.6723 7.13944 12.4648 7.55265 12.3543 7.99593C12.2438 8.43921 12.2331 8.90149 12.3229 9.3494C12.3539 9.5046 12.3475 9.66493 12.3044 9.8172C12.2613 9.96947 12.1827 10.1093 12.075 10.2253C11.9674 10.3413 11.8337 10.43 11.6851 10.4843C11.5364 10.5386 11.377 10.5568 11.2199 10.5374C9.06965 10.2733 7.04264 9.38936 5.38592 7.9934C5.41692 8.5954 5.62591 9.2354 6.07891 9.9054L6.75791 10.9094L5.64292 11.3844L5.42791 11.4764C5.58791 11.6594 5.77991 11.8464 5.99491 12.0314C6.28233 12.2774 6.58639 12.5033 6.90491 12.7074L6.91591 12.7144H6.91691L8.46491 13.6534L6.84491 14.4634C6.76491 14.5034 6.68491 14.5394 6.60491 14.5714C6.95325 14.8609 7.337 15.1048 7.74691 15.2974L9.13691 15.9544L7.97291 16.9584C7.33791 17.5064 6.69891 17.9154 5.86991 18.1314C7.14135 18.8086 8.56036 19.1614 10.0009 19.1584C14.8069 19.1584 18.6769 15.3234 18.6769 10.6244V10.1044L19.1019 9.8054C19.7659 9.3394 20.2349 8.7094 20.5709 7.9884H18.4109L18.1389 7.4184C17.8884 6.89107 17.4935 6.4456 17 6.13372C16.5065 5.82183 15.9347 5.65632 15.3509 5.6564H15.3499ZM4.06991 12.9564C3.97555 13.0645 3.90554 13.1916 3.86465 13.3291C3.82376 13.4666 3.81293 13.6113 3.83291 13.7534C3.94591 14.5544 4.42491 15.2444 4.95491 15.7714C5.09891 15.9144 5.25291 16.0514 5.41491 16.1824L5.33992 16.2024C4.85892 16.3224 4.20991 16.3474 3.12891 16.2424C2.92477 16.2224 2.71941 16.2656 2.54067 16.3662C2.36193 16.4669 2.21845 16.62 2.1297 16.8049C2.04095 16.9899 2.01121 17.1976 2.04452 17.4C2.07783 17.6024 2.17258 17.7897 2.31591 17.9364C3.31669 18.9593 4.51221 19.7714 5.83194 20.3248C7.15167 20.8782 8.56886 21.1616 9.99991 21.1584C15.7129 21.1584 20.3989 16.7224 20.6639 11.1244C21.9539 10.0414 22.5989 8.5744 22.9469 7.2414C22.9856 7.09346 22.9898 6.9386 22.9593 6.78876C22.9288 6.63891 22.8643 6.49806 22.7708 6.37705C22.6773 6.25603 22.5573 6.15807 22.42 6.09069C22.2827 6.02332 22.1318 5.98832 21.9789 5.9884H19.6259C19.0504 5.09473 18.2093 4.40384 17.2208 4.01284C16.2324 3.62183 15.1462 3.55035 14.1151 3.80845C13.0839 4.06654 12.1595 4.64124 11.4718 5.45178C10.7841 6.26232 10.3676 7.26797 10.2809 8.3274C8.43757 7.84755 6.78825 6.80821 5.55991 5.3524C5.45113 5.22379 5.31162 5.12473 5.15433 5.06444C4.99704 5.00414 4.82707 4.98455 4.66019 5.00749C4.49331 5.03044 4.33492 5.09516 4.19974 5.19567C4.06456 5.29618 3.95695 5.4292 3.88691 5.5824C3.28091 6.9044 3.16491 8.4284 3.84091 9.9784L3.60691 10.0784C3.38299 10.1738 3.20155 10.3476 3.09662 10.5673C2.99168 10.7869 2.97046 11.0372 3.03691 11.2714C3.22291 11.9234 3.64091 12.4994 4.06891 12.9564H4.06991Z" fill="white"/>
</svg>
