<svg width="80" height="80" viewBox="0 0 80 80" fill="none" xmlns="http://www.w3.org/2000/svg">
<g id="pause-icon">
<g id="Group">
<path id="Vector" d="M80 40C80 50.6087 75.7857 60.7828 68.2843 68.2843C60.7828 75.7857 50.6087 80 40 80C29.3913 80 19.2172 75.7857 11.7157 68.2843C4.21427 60.7828 0 50.6087 0 40C0 29.3913 4.21427 19.2172 11.7157 11.7157C19.2172 4.21427 29.3913 0 40 0C50.6087 0 60.7828 4.21427 68.2843 11.7157C75.7857 19.2172 80 29.3913 80 40V40ZM31.25 25C27.8 25 25 27.8 25 31.25V48.75C25 50.4076 25.6585 51.9973 26.8306 53.1694C28.0027 54.3415 29.5924 55 31.25 55C32.9076 55 34.4973 54.3415 35.6694 53.1694C36.8415 51.9973 37.5 50.4076 37.5 48.75V31.25C37.5 27.8 34.7 25 31.25 25ZM48.75 25C45.3 25 42.5 27.8 42.5 31.25V48.75C42.5 50.4076 43.1585 51.9973 44.3306 53.1694C45.5027 54.3415 47.0924 55 48.75 55C50.4076 55 51.9973 54.3415 53.1694 53.1694C54.3415 51.9973 55 50.4076 55 48.75V31.25C55 27.8 52.2 25 48.75 25Z" fill="#3F3F3F"/>
</g>
</g>
</svg>
