<svg width="80" height="80" viewBox="0 0 80 80" fill="none" xmlns="http://www.w3.org/2000/svg">
<g id="play-icon">
<g id="Group">
<path id="Vector" d="M80 40C80 50.6087 75.7857 60.7828 68.2843 68.2843C60.7828 75.7857 50.6087 80 40 80C29.3913 80 19.2172 75.7857 11.7157 68.2843C4.21427 60.7828 0 50.6087 0 40C0 29.3913 4.21427 19.2172 11.7157 11.7157C19.2172 4.21427 29.3913 0 40 0C50.6087 0 60.7828 4.21427 68.2843 11.7157C75.7857 19.2172 80 29.3913 80 40V40ZM33.95 25.465C33.5762 25.1988 33.1363 25.0407 32.6786 25.0079C32.2209 24.9751 31.763 25.069 31.355 25.2791C30.9471 25.4893 30.6049 25.8077 30.3659 26.1994C30.1269 26.5912 30.0003 27.0411 30 27.5V52.5C30.0003 52.9589 30.1269 53.4088 30.3659 53.8006C30.6049 54.1923 30.9471 54.5107 31.355 54.7209C31.763 54.931 32.2209 55.0249 32.6786 54.9921C33.1363 54.9593 33.5762 54.8012 33.95 54.535L51.45 42.035C51.7741 41.8037 52.0382 41.4984 52.2205 41.1445C52.4028 40.7905 52.4978 40.3981 52.4978 40C52.4978 39.6019 52.4028 39.2095 52.2205 38.8555C52.0382 38.5016 51.7741 38.1963 51.45 37.965L33.95 25.465V25.465Z" fill="#3F3F3F"/>
</g>
</g>
</svg>
